<svg width="13" height="17" viewBox="0 0 13 17" fill="none" xmlns="http://www.w3.org/2000/svg">
<path d="M5.506 16.035C0.862 9.3 0 8.611 0 6.137C0 4.50937 0.646575 2.9484 1.79749 1.79749C2.9484 0.646575 4.50937 0 6.137 0C7.76463 0 9.3256 0.646575 10.4765 1.79749C11.6274 2.9484 12.274 4.50937 12.274 6.137C12.274 8.611 11.412 9.302 6.768 16.037C6.69741 16.1389 6.60318 16.2222 6.49338 16.2797C6.38357 16.3372 6.26146 16.3672 6.1375 16.3672C6.01354 16.3672 5.89143 16.3372 5.78162 16.2797C5.67182 16.2222 5.57759 16.1389 5.507 16.037L5.506 16.035Z" fill="#A286BE"/>
</svg>
